<svg id="logo-aden" xmlns="http://www.w3.org/2000/svg" viewBox="0 0 121.24 178.03">
  <defs>
    <style>
      .cls-1 {
        fill: #fff;
      }
    </style>
  </defs>
  <rect id="Rectangle_1" data-name="Rectangle 1" class="cls-1" width="2.27" height="12.14" transform="translate(10.64 148.65)"/>
  <path id="Path_1" data-name="Path 1" class="cls-1" d="M15.85,160.79v-8.61h1.27a.51.51,0,0,1,.53.38l.14.68a5.074,5.074,0,0,1,.55-.49,3.875,3.875,0,0,1,.61-.38,2.825,2.825,0,0,1,.69-.24,3.424,3.424,0,0,1,.81-.08,3.063,3.063,0,0,1,1.25.24,2.454,2.454,0,0,1,.91.67,2.91,2.91,0,0,1,.55,1.03,4.254,4.254,0,0,1,.19,1.32v5.48H21.28v-5.48a1.8,1.8,0,0,0-.37-1.22,1.348,1.348,0,0,0-1.1-.43,2.209,2.209,0,0,0-1.01.24,3.6,3.6,0,0,0-.89.66v6.23Z"/>
  <path id="Path_2" data-name="Path 2" class="cls-1" d="M28.56,160.93a2.273,2.273,0,0,1-1.72-.63,2.446,2.446,0,0,1-.6-1.75v-4.81h-.87a.436.436,0,0,1-.29-.11.416.416,0,0,1-.12-.33v-.82l1.39-.23.44-2.35a.378.378,0,0,1,.16-.26.5.5,0,0,1,.31-.09h1.08v2.71h2.27v1.48H28.34v4.67a.933.933,0,0,0,.2.63.68.68,0,0,0,.54.23.742.742,0,0,0,.32-.05,1.223,1.223,0,0,0,.23-.1c.06-.03.12-.07.17-.1a.3.3,0,0,1,.15-.05.246.246,0,0,1,.15.05.92.92,0,0,1,.13.14l.62,1.01a3.185,3.185,0,0,1-1.04.57,4.569,4.569,0,0,1-1.25.19"/>
  <path id="Path_3" data-name="Path 3" class="cls-1" d="M36.12,152.05a4.3,4.3,0,0,1,1.5.26,3.243,3.243,0,0,1,1.18.76,3.347,3.347,0,0,1,.77,1.23,4.732,4.732,0,0,1,.28,1.66,3.844,3.844,0,0,1-.02.39.523.523,0,0,1-.08.24.374.374,0,0,1-.15.13.527.527,0,0,1-.23.04H34.05a3.008,3.008,0,0,0,.71,1.95,2.225,2.225,0,0,0,1.64.62,2.769,2.769,0,0,0,.87-.12,4.986,4.986,0,0,0,.64-.26c.18-.09.34-.18.48-.26a.8.8,0,0,1,.4-.12.509.509,0,0,1,.22.05.428.428,0,0,1,.16.14l.6.75a3.516,3.516,0,0,1-.77.68,4.335,4.335,0,0,1-.89.44,4.537,4.537,0,0,1-.95.23,6.038,6.038,0,0,1-.94.07,4.548,4.548,0,0,1-1.67-.3,3.765,3.765,0,0,1-1.34-.88,4.2,4.2,0,0,1-.9-1.44,5.534,5.534,0,0,1-.33-1.99,4.783,4.783,0,0,1,.28-1.66,3.855,3.855,0,0,1,.82-1.35,3.807,3.807,0,0,1,1.3-.91,4.1,4.1,0,0,1,1.74-.35m.04,1.48a1.93,1.93,0,0,0-1.42.51,2.508,2.508,0,0,0-.65,1.45h3.9a2.684,2.684,0,0,0-.11-.76,1.607,1.607,0,0,0-.33-.62,1.514,1.514,0,0,0-.57-.42,1.936,1.936,0,0,0-.82-.16"/>
  <path id="Path_4" data-name="Path 4" class="cls-1" d="M41.87,160.79v-8.61h1.22a.674.674,0,0,1,.45.12.71.71,0,0,1,.17.4l.13,1.04a4.222,4.222,0,0,1,1.08-1.26,2.255,2.255,0,0,1,1.39-.46,1.864,1.864,0,0,1,1.06.29l-.27,1.55a.356.356,0,0,1-.11.22.392.392,0,0,1-.23.06,1.49,1.49,0,0,1-.35-.06,2.239,2.239,0,0,0-.58-.06,1.759,1.759,0,0,0-1.11.36,2.763,2.763,0,0,0-.78,1.04v5.36H41.87Z"/>
  <path id="Path_5" data-name="Path 5" class="cls-1" d="M49.07,160.79v-8.61h1.27a.51.51,0,0,1,.53.38l.14.68a5.074,5.074,0,0,1,.55-.49,3.875,3.875,0,0,1,.61-.38,2.825,2.825,0,0,1,.69-.24,3.424,3.424,0,0,1,.81-.08,3.063,3.063,0,0,1,1.25.24,2.454,2.454,0,0,1,.91.67,2.91,2.91,0,0,1,.55,1.03,4.254,4.254,0,0,1,.19,1.32v5.48H54.5v-5.48a1.8,1.8,0,0,0-.37-1.22,1.34,1.34,0,0,0-1.09-.43,2.209,2.209,0,0,0-1.01.24,3.6,3.6,0,0,0-.89.66v6.23Z"/>
  <path id="Path_6" data-name="Path 6" class="cls-1" d="M65.7,160.79h-.93a.962.962,0,0,1-.46-.09.56.56,0,0,1-.25-.36l-.19-.61a6.974,6.974,0,0,1-.64.52,3.86,3.86,0,0,1-.65.37,3.278,3.278,0,0,1-.71.23,4.279,4.279,0,0,1-.84.08,3.289,3.289,0,0,1-1.01-.15,2.248,2.248,0,0,1-.79-.44,2.156,2.156,0,0,1-.52-.73,2.651,2.651,0,0,1-.19-1.02,1.979,1.979,0,0,1,.26-.96,2.479,2.479,0,0,1,.85-.86,5.413,5.413,0,0,1,1.59-.64,10.069,10.069,0,0,1,2.46-.25v-.51a1.893,1.893,0,0,0-.37-1.29,1.328,1.328,0,0,0-1.06-.42,2.491,2.491,0,0,0-.84.12,3.993,3.993,0,0,0-.58.26c-.17.1-.32.19-.46.27a.9.9,0,0,1-.46.12.615.615,0,0,1-.36-.11.781.781,0,0,1-.24-.27l-.38-.66a5.093,5.093,0,0,1,3.58-1.36,3.42,3.42,0,0,1,1.35.25,2.978,2.978,0,0,1,1,.69,3.065,3.065,0,0,1,.63,1.05,4.137,4.137,0,0,1,.21,1.34v5.43Zm-4.03-1.29a2.743,2.743,0,0,0,.59-.06,2.775,2.775,0,0,0,.51-.17,3.141,3.141,0,0,0,.46-.28,4.044,4.044,0,0,0,.45-.4v-1.44a9.207,9.207,0,0,0-1.52.11,4.128,4.128,0,0,0-.98.29,1.262,1.262,0,0,0-.52.41.965.965,0,0,0-.16.52.929.929,0,0,0,.32.79,1.472,1.472,0,0,0,.85.23"/>
  <path id="Path_7" data-name="Path 7" class="cls-1" d="M70.9,160.93a2.273,2.273,0,0,1-1.72-.63,2.446,2.446,0,0,1-.6-1.75v-4.81H67.7a.436.436,0,0,1-.29-.11.416.416,0,0,1-.12-.33v-.82l1.38-.23.44-2.35a.378.378,0,0,1,.16-.26.5.5,0,0,1,.31-.09h1.07v2.71h2.27v1.48H70.65v4.67a.933.933,0,0,0,.2.63.68.68,0,0,0,.54.23.742.742,0,0,0,.32-.05,1.223,1.223,0,0,0,.23-.1c.06-.03.12-.07.17-.1a.3.3,0,0,1,.15-.05.246.246,0,0,1,.15.05.92.92,0,0,1,.13.14l.62,1.01a3.185,3.185,0,0,1-1.04.57,4.147,4.147,0,0,1-1.22.19"/>
  <path id="Path_8" data-name="Path 8" class="cls-1" d="M77.42,149.67a1.181,1.181,0,0,1-.11.5,1.327,1.327,0,0,1-.29.41,1.343,1.343,0,0,1-.42.28,1.3,1.3,0,0,1-.52.1,1.255,1.255,0,0,1-.51-.1,1.343,1.343,0,0,1-.42-.28,1.3,1.3,0,0,1-.28-.41,1.208,1.208,0,0,1-.1-.5,1.3,1.3,0,0,1,.1-.52,1.287,1.287,0,0,1,.7-.7,1.262,1.262,0,0,1,.51-.11,1.158,1.158,0,0,1,.52.11,1.343,1.343,0,0,1,.42.28,1.371,1.371,0,0,1,.29.42,1.158,1.158,0,0,1,.11.52m-.31,11.12H75.04v-8.61h2.07Z"/>
  <path id="Path_9" data-name="Path 9" class="cls-1" d="M83.47,152.05a4.661,4.661,0,0,1,1.75.31,3.858,3.858,0,0,1,1.34.88,4.083,4.083,0,0,1,.86,1.39,5.34,5.34,0,0,1,.3,1.84,5.4,5.4,0,0,1-.3,1.85,3.889,3.889,0,0,1-.86,1.4,3.746,3.746,0,0,1-1.34.89,5.095,5.095,0,0,1-3.5,0,3.7,3.7,0,0,1-1.35-.89,3.977,3.977,0,0,1-.86-1.4,5.354,5.354,0,0,1-.31-1.85,5.111,5.111,0,0,1,.31-1.84,3.726,3.726,0,0,1,2.21-2.27,4.625,4.625,0,0,1,1.75-.31m0,7.28a1.815,1.815,0,0,0,1.59-.72,3.661,3.661,0,0,0,.52-2.12,3.586,3.586,0,0,0-.52-2.12,1.8,1.8,0,0,0-1.59-.73,1.834,1.834,0,0,0-1.61.73,3.628,3.628,0,0,0-.52,2.12,3.573,3.573,0,0,0,.52,2.11,1.847,1.847,0,0,0,1.61.73"/>
  <path id="Path_10" data-name="Path 10" class="cls-1" d="M89.67,160.79v-8.61h1.27a.51.51,0,0,1,.53.38l.14.68a5.074,5.074,0,0,1,.55-.49,3.876,3.876,0,0,1,.61-.38,2.825,2.825,0,0,1,.69-.24,3.424,3.424,0,0,1,.81-.08,3.063,3.063,0,0,1,1.25.24,2.454,2.454,0,0,1,.91.67,2.91,2.91,0,0,1,.55,1.03,4.254,4.254,0,0,1,.19,1.32v5.48H95.1v-5.48a1.85,1.85,0,0,0-.36-1.22,1.348,1.348,0,0,0-1.1-.43,2.209,2.209,0,0,0-1.01.24,3.6,3.6,0,0,0-.89.66v6.23Z"/>
  <path id="Path_11" data-name="Path 11" class="cls-1" d="M106.3,160.79h-.93a.962.962,0,0,1-.46-.09.56.56,0,0,1-.25-.36l-.19-.61a6.974,6.974,0,0,1-.64.52,3.86,3.86,0,0,1-.65.37,3.278,3.278,0,0,1-.71.23,4.279,4.279,0,0,1-.84.08,3.289,3.289,0,0,1-1.01-.15,2.248,2.248,0,0,1-.79-.44,2.156,2.156,0,0,1-.52-.73,2.651,2.651,0,0,1-.19-1.02,1.979,1.979,0,0,1,.26-.96,2.4,2.4,0,0,1,.85-.86,5.413,5.413,0,0,1,1.59-.64,10.069,10.069,0,0,1,2.46-.25v-.51a1.948,1.948,0,0,0-.36-1.29,1.328,1.328,0,0,0-1.06-.42,2.532,2.532,0,0,0-.84.12,3.993,3.993,0,0,0-.58.26c-.16.1-.32.19-.46.27a.9.9,0,0,1-.46.12.615.615,0,0,1-.36-.11.781.781,0,0,1-.24-.27l-.38-.66a5.093,5.093,0,0,1,3.58-1.36,3.42,3.42,0,0,1,1.35.25,2.978,2.978,0,0,1,1,.69,2.9,2.9,0,0,1,.62,1.05,4.137,4.137,0,0,1,.21,1.34v5.43Zm-4.03-1.29a2.743,2.743,0,0,0,.59-.06,2.776,2.776,0,0,0,.51-.17,3.141,3.141,0,0,0,.46-.28,4.043,4.043,0,0,0,.45-.4v-1.44a9.207,9.207,0,0,0-1.52.11,4.128,4.128,0,0,0-.98.29,1.262,1.262,0,0,0-.52.41.965.965,0,0,0-.16.52.929.929,0,0,0,.32.79,1.5,1.5,0,0,0,.85.23"/>
  <rect id="Rectangle_2" data-name="Rectangle 2" class="cls-1" width="2.07" height="12.48" transform="translate(108.81 148.32)"/>
  <path id="Path_12" data-name="Path 12" class="cls-1" d="M0,177.88V165.74H4.19a8.077,8.077,0,0,1,2.04.23,3.983,3.983,0,0,1,1.39.65,2.522,2.522,0,0,1,.79,1.02,3.37,3.37,0,0,1,.25,1.34,2.514,2.514,0,0,1-.13.82,2.25,2.25,0,0,1-.39.73,3.084,3.084,0,0,1-.67.62,4.172,4.172,0,0,1-.97.47c1.67.37,2.5,1.28,2.5,2.7a3.548,3.548,0,0,1-.29,1.43,3.154,3.154,0,0,1-.86,1.13,4.044,4.044,0,0,1-1.38.74,6.006,6.006,0,0,1-1.88.27H0Zm2.26-6.89H4.07a3.034,3.034,0,0,0,1.75-.42,1.518,1.518,0,0,0,.6-1.33,1.579,1.579,0,0,0-.54-1.35,2.811,2.811,0,0,0-1.68-.4H2.26Zm0,1.56v3.56H4.55a3.155,3.155,0,0,0,1.05-.15,1.8,1.8,0,0,0,.68-.4,1.515,1.515,0,0,0,.37-.59,2.346,2.346,0,0,0,.11-.71,1.8,1.8,0,0,0-.13-.71,1.413,1.413,0,0,0-.4-.54,1.858,1.858,0,0,0-.69-.34,3.755,3.755,0,0,0-1.02-.12H2.26Z"/>
  <path id="Path_13" data-name="Path 13" class="cls-1" d="M13.05,169.26v5.47a1.85,1.85,0,0,0,.36,1.22,1.34,1.34,0,0,0,1.09.43,2.209,2.209,0,0,0,1.01-.24,3.6,3.6,0,0,0,.89-.66v-6.23h2.07v8.61H17.2a.51.51,0,0,1-.53-.38l-.14-.69a6.233,6.233,0,0,1-.55.49,3.466,3.466,0,0,1-.61.38,3.6,3.6,0,0,1-.7.24,3.441,3.441,0,0,1-.8.09,3.063,3.063,0,0,1-1.25-.24,2.45,2.45,0,0,1-.91-.68,2.975,2.975,0,0,1-.56-1.04,4.254,4.254,0,0,1-.19-1.32v-5.47h2.09Z"/>
  <path id="Path_14" data-name="Path 14" class="cls-1" d="M26.15,170.94a.664.664,0,0,1-.18.19.413.413,0,0,1-.23.05.794.794,0,0,1-.32-.08c-.12-.06-.25-.12-.4-.19a3.838,3.838,0,0,0-.52-.19,2.308,2.308,0,0,0-.68-.08,1.587,1.587,0,0,0-.96.26.789.789,0,0,0-.35.68.674.674,0,0,0,.18.47,1.455,1.455,0,0,0,.48.33,4.4,4.4,0,0,0,.68.26c.25.08.51.16.77.25a7.282,7.282,0,0,1,.77.31,2.561,2.561,0,0,1,.68.44,2.11,2.11,0,0,1,.48.63,2.018,2.018,0,0,1,.18.89,2.915,2.915,0,0,1-.23,1.15,2.566,2.566,0,0,1-.66.91,3.3,3.3,0,0,1-1.08.6,4.742,4.742,0,0,1-1.47.21,4.937,4.937,0,0,1-.87-.08,5.365,5.365,0,0,1-.81-.22,3.978,3.978,0,0,1-.72-.34,3.761,3.761,0,0,1-.58-.42l.48-.79a.58.58,0,0,1,.22-.22.606.606,0,0,1,.32-.08.662.662,0,0,1,.36.11c.11.07.25.15.4.23a5.455,5.455,0,0,0,.53.24,2.393,2.393,0,0,0,.78.11,2.016,2.016,0,0,0,.64-.09,1.516,1.516,0,0,0,.44-.23.878.878,0,0,0,.25-.33,1.087,1.087,0,0,0,.08-.39.714.714,0,0,0-.18-.5,1.638,1.638,0,0,0-.48-.34,5.732,5.732,0,0,0-.68-.26c-.25-.08-.51-.16-.78-.25a6.665,6.665,0,0,1-.78-.31,2.47,2.47,0,0,1-.68-.46,1.99,1.99,0,0,1-.48-.68,2.366,2.366,0,0,1-.18-.97,2.5,2.5,0,0,1,.21-1.01,2.294,2.294,0,0,1,.62-.83,2.948,2.948,0,0,1,1.02-.57,4.313,4.313,0,0,1,1.41-.21,4.446,4.446,0,0,1,1.62.29,3.742,3.742,0,0,1,1.22.77Z"/>
  <path id="Path_15" data-name="Path 15" class="cls-1" d="M31.23,166.75a1.181,1.181,0,0,1-.11.5,1.327,1.327,0,0,1-.29.41,1.343,1.343,0,0,1-.42.28,1.3,1.3,0,0,1-.52.1,1.255,1.255,0,0,1-.51-.1,1.352,1.352,0,0,1-.41-.28,1.3,1.3,0,0,1-.28-.41,1.216,1.216,0,0,1-.11-.5,1.31,1.31,0,0,1,.11-.52,1.343,1.343,0,0,1,.28-.42,1.422,1.422,0,0,1,.41-.28,1.262,1.262,0,0,1,.51-.11,1.31,1.31,0,0,1,.52.11,1.344,1.344,0,0,1,.42.28,1.371,1.371,0,0,1,.29.42,1.348,1.348,0,0,1,.11.52m-.31,11.13H28.85v-8.61h2.07Z"/>
  <path id="Path_16" data-name="Path 16" class="cls-1" d="M33.59,177.88v-8.61h1.27a.51.51,0,0,1,.53.38l.14.68a5.074,5.074,0,0,1,.55-.49,3.875,3.875,0,0,1,.61-.38,2.687,2.687,0,0,1,.69-.24,3.424,3.424,0,0,1,.81-.08,3.063,3.063,0,0,1,1.25.24,2.454,2.454,0,0,1,.91.67,2.91,2.91,0,0,1,.55,1.03,4.254,4.254,0,0,1,.19,1.32v5.48H39.02V172.4a1.8,1.8,0,0,0-.37-1.22,1.353,1.353,0,0,0-1.09-.43,2.209,2.209,0,0,0-1.01.24,3.6,3.6,0,0,0-.89.66v6.23Z"/>
  <path id="Path_17" data-name="Path 17" class="cls-1" d="M47.04,169.13a4.3,4.3,0,0,1,1.5.26,3.243,3.243,0,0,1,1.18.76,3.347,3.347,0,0,1,.77,1.23,4.514,4.514,0,0,1,.28,1.66,3.844,3.844,0,0,1-.02.39.523.523,0,0,1-.08.24.374.374,0,0,1-.15.13.546.546,0,0,1-.24.04H44.96a3.008,3.008,0,0,0,.71,1.95,2.233,2.233,0,0,0,1.65.62,2.858,2.858,0,0,0,.87-.12,3.867,3.867,0,0,0,.64-.26c.18-.1.34-.18.48-.26a.8.8,0,0,1,.4-.12.509.509,0,0,1,.22.05.521.521,0,0,1,.16.14l.6.76a3.8,3.8,0,0,1-.77.68,4.6,4.6,0,0,1-.89.44,4.537,4.537,0,0,1-.95.23,7.573,7.573,0,0,1-.94.07,4.586,4.586,0,0,1-1.67-.3,3.765,3.765,0,0,1-1.34-.88,4.2,4.2,0,0,1-.9-1.44,5.534,5.534,0,0,1-.33-1.99,4.566,4.566,0,0,1,.29-1.66,3.855,3.855,0,0,1,.82-1.35,3.906,3.906,0,0,1,1.3-.91,3.826,3.826,0,0,1,1.73-.36m.04,1.49a1.93,1.93,0,0,0-1.42.51,2.508,2.508,0,0,0-.65,1.45h3.9a2.684,2.684,0,0,0-.11-.76,1.606,1.606,0,0,0-.34-.63,1.514,1.514,0,0,0-.57-.42,2.088,2.088,0,0,0-.81-.15"/>
  <path id="Path_18" data-name="Path 18" class="cls-1" d="M57.9,170.94a.664.664,0,0,1-.18.19.413.413,0,0,1-.23.05.794.794,0,0,1-.32-.08c-.11-.06-.25-.12-.4-.19a3.838,3.838,0,0,0-.52-.19,2.308,2.308,0,0,0-.68-.08,1.641,1.641,0,0,0-.97.26.813.813,0,0,0-.35.68.674.674,0,0,0,.18.47,1.455,1.455,0,0,0,.48.33,4.4,4.4,0,0,0,.68.26c.25.08.51.16.77.25a7.283,7.283,0,0,1,.77.31,2.561,2.561,0,0,1,.68.44,2.11,2.11,0,0,1,.48.63,2.018,2.018,0,0,1,.18.89,2.915,2.915,0,0,1-.23,1.15,2.566,2.566,0,0,1-.66.91,3.3,3.3,0,0,1-1.08.6,4.742,4.742,0,0,1-1.47.21,4.937,4.937,0,0,1-.87-.08,5.365,5.365,0,0,1-.81-.22,3.978,3.978,0,0,1-.72-.34,3.332,3.332,0,0,1-.58-.42l.48-.79a.58.58,0,0,1,.22-.22.606.606,0,0,1,.32-.08.723.723,0,0,1,.37.11c.11.07.25.15.4.23a5.456,5.456,0,0,0,.53.24,2.393,2.393,0,0,0,.78.11,1.909,1.909,0,0,0,.63-.09,1.516,1.516,0,0,0,.44-.23.878.878,0,0,0,.25-.33,1.087,1.087,0,0,0,.08-.39.714.714,0,0,0-.18-.5,1.638,1.638,0,0,0-.48-.34,6.489,6.489,0,0,0-.68-.26c-.25-.08-.52-.16-.78-.25a6.665,6.665,0,0,1-.78-.31,2.47,2.47,0,0,1-.68-.46,1.99,1.99,0,0,1-.48-.68,2.366,2.366,0,0,1-.18-.97,2.5,2.5,0,0,1,.21-1.01,2.294,2.294,0,0,1,.62-.83,2.948,2.948,0,0,1,1.02-.57,4.313,4.313,0,0,1,1.41-.21,4.446,4.446,0,0,1,1.62.29,3.742,3.742,0,0,1,1.22.77Z"/>
  <path id="Path_19" data-name="Path 19" class="cls-1" d="M65.57,170.94a.664.664,0,0,1-.18.19.413.413,0,0,1-.23.05.794.794,0,0,1-.32-.08c-.11-.06-.25-.12-.4-.19a3.838,3.838,0,0,0-.52-.19,2.308,2.308,0,0,0-.68-.08,1.587,1.587,0,0,0-.96.26.789.789,0,0,0-.35.68.674.674,0,0,0,.18.47,1.455,1.455,0,0,0,.48.33,4.4,4.4,0,0,0,.68.26c.25.08.51.16.77.25a7.282,7.282,0,0,1,.77.31,2.56,2.56,0,0,1,.68.44,2.11,2.11,0,0,1,.48.63,2.018,2.018,0,0,1,.18.89,2.915,2.915,0,0,1-.23,1.15,2.566,2.566,0,0,1-.66.91,3.3,3.3,0,0,1-1.08.6,4.742,4.742,0,0,1-1.47.21,4.937,4.937,0,0,1-.87-.08,5.365,5.365,0,0,1-.81-.22,3.978,3.978,0,0,1-.72-.34,3.332,3.332,0,0,1-.58-.42l.48-.79a.58.58,0,0,1,.22-.22.606.606,0,0,1,.32-.08.662.662,0,0,1,.36.11c.12.07.25.15.4.23a5.456,5.456,0,0,0,.53.24,2.393,2.393,0,0,0,.78.11,2.016,2.016,0,0,0,.64-.09,1.516,1.516,0,0,0,.44-.23.878.878,0,0,0,.25-.33,1.087,1.087,0,0,0,.08-.39.714.714,0,0,0-.18-.5,1.638,1.638,0,0,0-.48-.34,5.732,5.732,0,0,0-.68-.26c-.26-.08-.51-.16-.78-.25a6.665,6.665,0,0,1-.78-.31,2.47,2.47,0,0,1-.68-.46,1.99,1.99,0,0,1-.48-.68,2.366,2.366,0,0,1-.18-.97,2.5,2.5,0,0,1,.21-1.01,2.294,2.294,0,0,1,.62-.83,2.948,2.948,0,0,1,1.02-.57,4.313,4.313,0,0,1,1.41-.21,4.446,4.446,0,0,1,1.62.29,3.742,3.742,0,0,1,1.22.77Z"/>
  <path id="Path_20" data-name="Path 20" class="cls-1" d="M78.33,167.95a.631.631,0,0,1-.21.26.543.543,0,0,1-.29.07.719.719,0,0,1-.38-.13c-.14-.09-.31-.18-.5-.29a3.845,3.845,0,0,0-.67-.29,2.712,2.712,0,0,0-.9-.13,2.855,2.855,0,0,0-.82.11,1.757,1.757,0,0,0-.59.32,1.219,1.219,0,0,0-.36.48,1.558,1.558,0,0,0-.12.62,1.052,1.052,0,0,0,.24.71,2.12,2.12,0,0,0,.63.49,4.688,4.688,0,0,0,.9.36c.34.11.68.22,1.03.34a10.11,10.11,0,0,1,1.03.42,3.535,3.535,0,0,1,.9.6,2.756,2.756,0,0,1,.63.89,3.078,3.078,0,0,1,.24,1.28,4.131,4.131,0,0,1-.28,1.54,3.53,3.53,0,0,1-.82,1.25,3.734,3.734,0,0,1-1.32.84,4.972,4.972,0,0,1-1.79.31,6.119,6.119,0,0,1-1.14-.11,6.7,6.7,0,0,1-1.08-.32,6.335,6.335,0,0,1-.97-.5,4.285,4.285,0,0,1-.8-.65l.65-1.08a1.048,1.048,0,0,1,.22-.2.574.574,0,0,1,.29-.08.817.817,0,0,1,.45.17c.16.11.35.24.58.38a4.048,4.048,0,0,0,.78.38,2.917,2.917,0,0,0,1.08.17,2.179,2.179,0,0,0,1.49-.46,1.659,1.659,0,0,0,.53-1.32,1.21,1.21,0,0,0-.24-.78,2.017,2.017,0,0,0-.63-.51,4.693,4.693,0,0,0-.9-.35c-.34-.1-.68-.2-1.02-.31a8.993,8.993,0,0,1-1.02-.4,3.323,3.323,0,0,1-.9-.61,3.061,3.061,0,0,1-.64-.94,3.588,3.588,0,0,1-.24-1.4,3.338,3.338,0,0,1,1.03-2.41,3.743,3.743,0,0,1,1.25-.78,4.436,4.436,0,0,1,1.69-.29,5.489,5.489,0,0,1,1.98.34,4.568,4.568,0,0,1,1.55.94Z"/>
  <path id="Path_21" data-name="Path 21" class="cls-1" d="M87.1,171.09a.764.764,0,0,1-.18.18.448.448,0,0,1-.26.07.52.52,0,0,1-.31-.1c-.1-.06-.22-.14-.36-.22a3.391,3.391,0,0,0-.5-.22,2.4,2.4,0,0,0-.72-.1,2.116,2.116,0,0,0-.96.2,1.78,1.78,0,0,0-.68.57,2.609,2.609,0,0,0-.41.89,4.82,4.82,0,0,0-.13,1.19,4.6,4.6,0,0,0,.15,1.23,2.682,2.682,0,0,0,.42.9,1.772,1.772,0,0,0,.67.55,1.972,1.972,0,0,0,.89.19,2.21,2.21,0,0,0,.8-.12,2.521,2.521,0,0,0,.52-.27c.14-.1.26-.19.37-.27a.55.55,0,0,1,.35-.12.424.424,0,0,1,.38.19l.6.76a3.981,3.981,0,0,1-.75.68,4.218,4.218,0,0,1-.84.44,4.021,4.021,0,0,1-.89.23,7.123,7.123,0,0,1-.92.07,3.791,3.791,0,0,1-1.5-.3,3.539,3.539,0,0,1-1.23-.87,4.13,4.13,0,0,1-.83-1.4,5.488,5.488,0,0,1-.31-1.88,5.549,5.549,0,0,1,.27-1.76,3.943,3.943,0,0,1,.8-1.4,3.8,3.8,0,0,1,1.31-.93,4.585,4.585,0,0,1,1.8-.34,4.213,4.213,0,0,1,1.69.31,4.115,4.115,0,0,1,1.31.89Z"/>
  <path id="Path_22" data-name="Path 22" class="cls-1" d="M89.39,177.88V165.4h2.07v4.79a4.339,4.339,0,0,1,1.11-.77,3.161,3.161,0,0,1,1.42-.29,3.063,3.063,0,0,1,1.25.24,2.454,2.454,0,0,1,.91.67,2.91,2.91,0,0,1,.55,1.03,4.254,4.254,0,0,1,.19,1.32v5.48H94.82v-5.48a1.85,1.85,0,0,0-.36-1.22,1.348,1.348,0,0,0-1.1-.43,2.209,2.209,0,0,0-1.01.24,3.6,3.6,0,0,0-.89.66v6.23H89.39Z"/>
  <path id="Path_23" data-name="Path 23" class="cls-1" d="M102.95,169.13a4.661,4.661,0,0,1,1.75.31,3.858,3.858,0,0,1,1.34.88,4.083,4.083,0,0,1,.86,1.39,5.34,5.34,0,0,1,.3,1.84,5.4,5.4,0,0,1-.3,1.85,3.977,3.977,0,0,1-.86,1.4,3.746,3.746,0,0,1-1.34.89,5.095,5.095,0,0,1-3.5,0,3.786,3.786,0,0,1-1.35-.89,4.149,4.149,0,0,1-.87-1.4,5.354,5.354,0,0,1-.31-1.85,5.111,5.111,0,0,1,.31-1.84,3.736,3.736,0,0,1,.87-1.39,3.809,3.809,0,0,1,1.35-.88,4.661,4.661,0,0,1,1.75-.31m0,7.28a1.815,1.815,0,0,0,1.59-.72,3.661,3.661,0,0,0,.52-2.12,3.586,3.586,0,0,0-.52-2.12,1.821,1.821,0,0,0-1.59-.73,1.847,1.847,0,0,0-1.61.73,3.628,3.628,0,0,0-.52,2.12,3.573,3.573,0,0,0,.52,2.11,1.834,1.834,0,0,0,1.61.73"/>
  <path id="Path_24" data-name="Path 24" class="cls-1" d="M112.83,169.13a4.661,4.661,0,0,1,1.75.31,3.858,3.858,0,0,1,1.34.88,4.083,4.083,0,0,1,.86,1.39,5.34,5.34,0,0,1,.3,1.84,5.4,5.4,0,0,1-.3,1.85,3.977,3.977,0,0,1-.86,1.4,3.746,3.746,0,0,1-1.34.89,5.095,5.095,0,0,1-3.5,0,3.786,3.786,0,0,1-1.35-.89,4.149,4.149,0,0,1-.87-1.4,5.354,5.354,0,0,1-.31-1.85,5.111,5.111,0,0,1,.31-1.84,3.736,3.736,0,0,1,.87-1.39,3.809,3.809,0,0,1,1.35-.88,4.7,4.7,0,0,1,1.75-.31m0,7.28a1.815,1.815,0,0,0,1.59-.72,3.661,3.661,0,0,0,.52-2.12,3.586,3.586,0,0,0-.52-2.12,1.821,1.821,0,0,0-1.59-.73,1.847,1.847,0,0,0-1.61.73,3.628,3.628,0,0,0-.52,2.12,3.573,3.573,0,0,0,.52,2.11,1.846,1.846,0,0,0,1.61.73"/>
  <rect id="Rectangle_3" data-name="Rectangle 3" class="cls-1" width="2.07" height="12.47" transform="translate(119.17 165.4)"/>
  <path id="Path_25" data-name="Path 25" class="cls-1" d="M1.85,134.7l14.88-32.2a.851.851,0,0,1,.81-.53h.48a.8.8,0,0,1,.81.53l14.74,32.2a.842.842,0,0,1-.81,1.24H28.6a1.383,1.383,0,0,1-1.39-.96l-2.34-5.17H10.56l-2.34,5.17a1.44,1.44,0,0,1-1.39.96H2.66a.842.842,0,0,1-.81-1.24m20.67-10.19-4.78-10.53H17.6l-4.69,10.53Z"/>
  <path id="Path_26" data-name="Path 26" class="cls-1" d="M36.73,103.36a.9.9,0,0,1,.86-.91H48.93a16.745,16.745,0,1,1,0,33.49H37.59a.9.9,0,0,1-.86-.91Zm11.63,26.75a10.936,10.936,0,0,0,0-21.87H42.9v21.87Z"/>
  <path id="Path_27" data-name="Path 27" class="cls-1" d="M68.07,103.36a.907.907,0,0,1,.91-.91H88.45a.907.907,0,0,1,.91.91v3.92a.907.907,0,0,1-.91.91H74.29v7.85H86.1a.941.941,0,0,1,.91.91v3.97a.907.907,0,0,1-.91.91H74.29v8.37H88.45a.907.907,0,0,1,.91.91v3.92a.907.907,0,0,1-.91.91H68.98a.907.907,0,0,1-.91-.91Z"/>
  <path id="Path_28" data-name="Path 28" class="cls-1" d="M91.56,102.83a.9.9,0,0,1,.91-.86h1.2l19.9,21.15h.05V103.36a.907.907,0,0,1,.91-.91h4.4a.941.941,0,0,1,.91.91v32.2a.9.9,0,0,1-.91.86h-1.15l-20-21.96h-.05v20.57a.907.907,0,0,1-.91.91H92.47a.941.941,0,0,1-.91-.91Z"/>
  <path id="Path_29" data-name="Path 29" class="cls-1" d="M60.88,87.23h-.07a1.647,1.647,0,0,1-.32-.06h0c-21.57-4.5-37.68-25.75-39.46-51.81a1.408,1.408,0,0,1,.01-.21c0-.5-.11-2.74-.11-2.74V13.33a2.057,2.057,0,0,1,1-1.59l.15-.09c3.81-1.9,7.27-5.68,9.49-10.36.01-.03.03-.05.04-.08a.591.591,0,0,1,.06-.12A1.952,1.952,0,0,1,33.41,0h54.9a1.92,1.92,0,0,1,1.75,1.06c.01.02.02.06.04.1a.052.052,0,0,1,.02.04c2.21,4.67,5.8,8.58,9.61,10.47a1.644,1.644,0,0,1,.22.14,2,2,0,0,1,.92,1.39l.02,19.13a1.049,1.049,0,0,1-.09.44c-.85,27.1-17.49,49.95-39.69,54.43a1.81,1.81,0,0,1-.23.03M23.37,35.19c1.71,25.07,17.11,45.46,37.48,49.68C82,80.49,97.81,58.42,98.47,32.3a1.166,1.166,0,0,1,.07-.38V13.69A24.484,24.484,0,0,1,88.06,2.33H33.65A24.544,24.544,0,0,1,23.26,13.64V32.32c.08,1.43.12,2.3.11,2.87Z"/>
  <path id="Path_30" data-name="Path 30" class="cls-1" d="M78.08,37.39l-.04-.04c-.01-.01-.03-.02-.04-.03a.648.648,0,0,0-.36-.07l-3.32.22-3.52.28h-.04l-.04.01a.134.134,0,0,0-.11.15l.17,1.21a.116.116,0,0,0,.13.11l2.22-.15a2.631,2.631,0,0,0,.07.49,2.412,2.412,0,0,0,.82,1.26,2.6,2.6,0,0,0,1.03.33h0l.03.01c.01,0,.02.01.03.01a2.14,2.14,0,0,0,2.34-1.9l.05-.45.29-.05a.746.746,0,0,0,.37-.13.115.115,0,0,0,.05-.12l-.11-1.04a.1.1,0,0,0-.02-.1"/>
  <path id="Path_31" data-name="Path 31" class="cls-1" d="M70.88,45.95a.128.128,0,0,0-.14-.05.612.612,0,0,0-.12.05,4.871,4.871,0,0,0-1.74,2.13,10.99,10.99,0,0,0-.51,4.07,10.262,10.262,0,0,1-.45,3.74,2.836,2.836,0,0,1-2.35,1.56c-.09,0-.19-.01-.29-.01a3.1,3.1,0,0,1-1.58-.59c-.01-.01-.03-.01-.04-.02a.151.151,0,0,1-.08-.04.567.567,0,0,0-.13-.1.153.153,0,0,0-.16.03l-.85,1.02a.169.169,0,0,0-.03.1.119.119,0,0,0,.05.09A4.867,4.867,0,0,0,65,58.95a5.225,5.225,0,0,0,.67.04,3.7,3.7,0,0,0,2.57-.97c1.54-1.42,1.55-3.21,1.57-5.11a14.779,14.779,0,0,1,.11-2.1,5.058,5.058,0,0,1,1.67-3.68.139.139,0,0,0,.02-.18Z"/>
  <path id="Path_32" data-name="Path 32" class="cls-1" d="M70.66,15.99a7.212,7.212,0,0,0-3.14-1.97,3.815,3.815,0,0,0-3.06.63A28.875,28.875,0,0,0,57.1,9.96a15.654,15.654,0,0,0-3.3-1.04,15.877,15.877,0,0,0-2.12-.28c-.47-.04-.93-.06-1.39-.06a16.578,16.578,0,0,0-8.19,2.23A24.029,24.029,0,0,0,30.26,30.02v1.56c.34,6.63,3.79,12.23,9.24,14.97.41.2.84.38,1.21.55a6.7,6.7,0,0,1,3.41,2.42,8.085,8.085,0,0,1,.95,5.26.15.15,0,0,0,.04.11l6.55,6.46,2.11,2.02,3.3,3.31,4.57,4.41a1.1,1.1,0,0,0,.7.28.884.884,0,0,0,.6-.25l4.55-4.55,2.34-2.27a4.345,4.345,0,0,0,2.48.84,4.646,4.646,0,0,0,1.77-.37,3.016,3.016,0,0,0,.45-.18l.09-.04a5.157,5.157,0,0,0,2.55.54,5.946,5.946,0,0,0,5.21-2.95,7.133,7.133,0,0,0-1.25-8.05l1.01-1.26a.788.788,0,0,0,.02-.2c0-.01-.01-.03-.01-.04l-1.11-1.65c.27-.2.87-.67,1.05-.84l.02-.02a.557.557,0,0,0,.08-.49l-.74-2.65,3.86-.76a.037.037,0,0,1,.03-.01.468.468,0,0,0,.22-.24.813.813,0,0,0-.13-.62c-.64-1.11-1.37-2.31-2.18-3.66-.9-1.49-1.84-3.03-2.59-4.36a8.082,8.082,0,0,1,.12-1.19c.06-.43.15-1.05.27-2.01l4.25-.69c.01,0,.03,0,.03-.01a.656.656,0,0,0,.38-.4.678.678,0,0,0-.24-.59ZM83.35,45.12l-4.79.8a.69.69,0,0,0-.19.07.134.134,0,0,0-.06.15l.33,1.18a.139.139,0,0,0,.07.08.109.109,0,0,0,.05.01h.07l1.24-.24c.07.25.73,1.9.8,2.18a3.192,3.192,0,0,1-.85.65,4.6,4.6,0,0,0-4.32,1.98.124.124,0,0,0,.05.17l1,.58a.107.107,0,0,0,.11.01.178.178,0,0,0,.08-.07,3.4,3.4,0,0,1,2.89-1.37,15.471,15.471,0,0,0,1.06,1.4c-.13.41-1.26,1.32-1.36,1.61a.148.148,0,0,0,.06.16c1.63.99,2.44,4.09,1.71,6.34a4.6,4.6,0,0,1-3.97,2.83,3.994,3.994,0,0,1-1.48-.18c1.79-2.46.43-5.53-.96-7.93a10.989,10.989,0,0,1-.76-1.63,5.052,5.052,0,0,1,0-2.9,4.763,4.763,0,0,1,1.84-2.04.13.13,0,0,0,.04-.18l-.62-1.04a.139.139,0,0,0-.17-.05,6.88,6.88,0,0,0-1.12.81,7.252,7.252,0,0,0-1.41,2.44c-.7,2.21,0,3.64,1.18,5.78l.25.56a5.906,5.906,0,0,1,.77,4.83,2.219,2.219,0,0,1-.77.94,2.69,2.69,0,0,1-1.67.58,2.751,2.751,0,0,1-1.28-.31,3.667,3.667,0,0,1-1.4-2.87v-.04a.107.107,0,0,0-.02-.06.123.123,0,0,0-.11-.07l-1.21-.04c-.08-.02-.13.05-.13.12a4.43,4.43,0,0,0,.7,2.66l-1.48,1.39-5.16,5.06-5.25-5.06-3.3-3.25-6.9-6.65c.08-.07.9-.82,1.88-1.7A5.5,5.5,0,0,0,49,54.17a4.454,4.454,0,0,0,4.07,3.25,4.273,4.273,0,0,0,4.57-5.47c-.17-1.21-1.58-2.63-2.3-3.24a2.127,2.127,0,0,1-.4-.54,2.743,2.743,0,0,1-.37-.97,5.982,5.982,0,0,0,.88-1.07,6.731,6.731,0,0,0,3.01,1.95,16.981,16.981,0,0,0,2.97.56.214.214,0,0,0,.06-.01.129.129,0,0,0,.09-.12l.14-1.22a.16.16,0,0,0-.08-.14.944.944,0,0,0-.09-.03c-.31-.06-.62-.1-.94-.15h-.04a6.271,6.271,0,0,1-3.47-1.24,4.439,4.439,0,0,1-1.09-1.64,2.618,2.618,0,0,1,1.07-3.5,3.4,3.4,0,0,1,1.58-.17,3.852,3.852,0,0,1,1.06.38c.17.08.36.17.58.25a.2.2,0,0,0,.08.01.153.153,0,0,0,.1-.04l.69-.84a.136.136,0,0,0,.01-.15,1.212,1.212,0,0,0-.33-.35,29.715,29.715,0,0,0,2.89-5.45l1.87.32a8.92,8.92,0,0,0-2.05,4.94l.01.18c.08,1.28.19,3.03-.47,3.87a1.566,1.566,0,0,1-1.22.58,3.172,3.172,0,0,1-1.77-.72.125.125,0,0,0-.17.02l-.91.92a.116.116,0,0,0-.04.1.139.139,0,0,0,.05.1,4.744,4.744,0,0,0,2.85,1.08,2.9,2.9,0,0,0,1.54-.42c1.7-1.23,1.65-2.54,1.58-4.19-.01-.32-.02-.65-.02-.98a7.763,7.763,0,0,1,2.02-5.31l.49.06h1.3l-.18.21c-.46.54-.86,1.01-1.15,1.43-.78,1.32-.78,2.37-.78,4.46a6.669,6.669,0,0,1-1.24,4.46c-1.81,2.16-1.74,3.23-1.59,5.8l.02.38a1.829,1.829,0,0,1-.48,1.37,1.891,1.891,0,0,1-1.4.55,2.82,2.82,0,0,1-1.88-.77.127.127,0,0,0-.18.01l-.74.81a.127.127,0,0,0,0,.18.628.628,0,0,0,.12.11,4.182,4.182,0,0,0,2.7,1.12,3.556,3.556,0,0,0,2.95-1.66,5.559,5.559,0,0,0,.32-3.37l-.01-.12c-.02-.23-.05-.46-.06-.67a4.114,4.114,0,0,1,.97-2.4,8.95,8.95,0,0,0,1.7-4.8c.04-.43.05-.83.07-1.21v-.19c.09-2.17.14-3.49,2.89-5.64l8.55-.62-.14,1.4c-.06.64-.11,1.03-.13,1.28v.04l.2,1.02c0,.02.01.03.01.05,1.61,2.78,2.95,5.17,4.01,7.11m-29.46,7.3a2.706,2.706,0,0,0-1.37-1.79,2.284,2.284,0,0,0-1.17-.15c.23-.22.31-.29.49-.47.14-.15,1.16-1.11,1.43-1.36a3.488,3.488,0,0,0,.9,1.31,10.355,10.355,0,0,1,1.25,1.03c.05.05,1.21,1.86.45,3.25a3.056,3.056,0,0,1-3.45,1.51,2.91,2.91,0,0,1-1.65-1.51,1.9,1.9,0,0,1-.22-1.35.8.8,0,0,1,.8-.59c.4,0,.73.33.86.85a.132.132,0,0,0,.1.09.17.17,0,0,0,.1,0l1.41-.65c0-.01.02-.02.03-.02a.139.139,0,0,0,.04-.15M74.12,33.05a40.318,40.318,0,0,1-6.6,0c-1.29-.07-2.62-.2-3.93-.37a.09.09,0,0,0-.05.01l-.04-.01a.645.645,0,0,0-.76.26l-.13.26a40.49,40.49,0,0,1-3.24,5.74,5.828,5.828,0,0,0-2.28,0,3.641,3.641,0,0,0-2.36,1.77,5.109,5.109,0,0,0-.14,4.11,5.586,5.586,0,0,0-.78.85c-.64.63-1.37,1.36-2.14,2.13a56.912,56.912,0,0,1-4.61,4.27,9.52,9.52,0,0,0-1.28-4.1c-.87-1.78-1.77-3.62-.9-5.9.92-2.36,3.18-4.33,5.37-6.24l.31-.27a31.906,31.906,0,0,0,2.75-2.88c2.47-2.99,6.05-8.79,2.32-14a.115.115,0,0,0-.11-.06.127.127,0,0,0-.06.01l-1.18.57a.124.124,0,0,0-.06.08.115.115,0,0,0,.01.1.147.147,0,0,0,.02.04c2.57,3.5,1.17,7.09-.72,10.45a17.8,17.8,0,0,1-3.93,4.55c-5.4,3.76-7.61,7.76-6.56,11.87-7.5-3.37-10.68-7.69-10.96-14.89A21.431,21.431,0,0,1,42.76,12.25a16.185,16.185,0,0,1,7.85-2.1c.36,0,.73.02,1.08.05l.06.01c.68.08,1.38.17,2.06.31a18.8,18.8,0,0,1,3.3,1.1,24.559,24.559,0,0,1,6.2,4.15,4.5,4.5,0,0,0-.26,3.98,6.561,6.561,0,0,0,4.48,3.41l.1.03a1.8,1.8,0,0,0,.19.05.133.133,0,0,0,.16-.09L68.32,22a.118.118,0,0,0-.01-.1.156.156,0,0,0-.08-.06,4.715,4.715,0,0,1-.68-.2c-1.89-.85-3.09-2.06-3.28-3.36a2.712,2.712,0,0,1,1.94-2.65,3.776,3.776,0,0,1,.61-.06,1.951,1.951,0,0,1,.74.14,5.914,5.914,0,0,1,2.25,1.76l.04.04c.12.12.23.24.36.37l.96.96L82.8,32.12a83.485,83.485,0,0,1-8.68.93"/>
</svg>
